<svg width="310" height="47" viewBox="0 0 310 47" fill="none" xmlns="http://www.w3.org/2000/svg">
<path d="M0 46.8258L17.545 46.675L19.7558 32.9154L26.711 46.675H31.0934H46.3661L36.9331 31.5051C39.1795 30.2562 41.1216 28.7154 42.7065 26.9106C41.5478 35.1877 43.6886 42.3858 49.3037 46.6741H77.927C82.6301 43.7346 86.5488 39.4347 89.183 34.3755L87.0422 46.6741H104.587L107.592 29.3355H121.552L118.602 46.6741H136.146L137.268 40.1423C138.468 42.6402 140.368 44.8885 142.923 46.6741H175.21C177.329 45.3992 179.1 43.8603 180.449 42.0949L179.697 46.6741H197.219L199.01 35.6888H199.061C209.688 35.5803 218.19 32.2184 222.961 26.2136L219.638 46.6741H232.543V46.7135L237.159 46.6741L239.37 32.9144L246.324 46.6741H265.978L256.548 31.5042C262.078 28.4283 265.767 23.5919 266.82 17.3413C267.106 15.5855 267.137 13.8728 266.908 12.2514H276.886L270.931 46.6741H288.424L294.432 12.2514H307.762L309.921 0.00368555H265.084L264.078 5.70704C261.148 2.156 256.02 -0.102874 248.538 0.00368555C247.378 0.00368555 246.061 0.00368837 244.744 0.0545684V0.00368555L227.2 0.155373L225.849 8.46704C223.496 3.44528 217.844 0.00368555 208.598 0.00368555H187.366L185.607 10.7019C182.555 3.93104 174.771 0.00368555 164.916 0.00368555C155.731 0.00368555 145.942 3.30128 142.362 10.459L144.157 0.00368555H126.613L123.608 17.3912H109.7L112.702 0.00368555H95.1581L92.3904 15.9186C90.7834 6.59217 83.7523 0.00368555 73.1338 0.00368555C61.4141 0.00368555 52.5763 5.63505 47.4355 13.8335C47.1379 6.02193 41.1994 -0.172954 28.9248 0.00368555C27.7642 0.00368555 26.4499 0.00368837 25.1309 0.0545684V0.00368555L7.58688 0.155373L0 46.8258ZM182.611 28.941C180.601 24.1371 174.746 20.5438 162.708 19.003C154.541 17.9451 157.806 12.955 162.708 12.6526C168.344 12.2504 170.819 15.0719 170.819 17.8943L184.386 18.1486L182.612 28.94L182.611 28.941ZM201.169 22.2306L202.907 11.5438C203.751 11.5438 204.595 11.4958 205.383 11.4958C208.598 11.4958 210.601 13.3602 210.286 16.3352C209.863 20.3653 206.808 22.2306 203.803 22.2306H201.169ZM138.752 31.5051L141.027 18.2398C141.982 25.7998 150.086 29.0658 160.177 30.3954C169.975 31.604 166.023 39.2658 158.49 37.9055C154.117 37.0981 152.855 34.0741 152.855 31.5051H138.753H138.752ZM90.1286 28.9343H74.8166C73.2883 32.8645 70.4448 35.6888 66.5453 35.6888C61.5936 35.6888 59.9587 31.1 61.0665 25.4562C62.0678 19.7605 65.4384 15.1237 70.3392 15.1237C74.2358 15.1237 75.9763 18.0478 76.0819 21.979H91.3363L90.1277 28.9343H90.1286ZM244.456 10.8152C246.224 14.5861 248.098 16.2824 251.105 17.1455H251.111L251.108 17.1474H251.111H251.105C248.098 18.0104 246.224 19.7058 244.456 23.4776C242.692 19.7048 240.605 18.045 237.809 17.1474C237.808 17.1474 242.868 15.6133 244.456 10.8152ZM23.8714 10.8152C25.6368 14.5861 27.5126 16.2824 30.5203 17.1455H30.5232L30.5213 17.1474H30.5232H30.5203C27.5126 18.0104 25.6368 19.7058 23.8714 23.4776C22.1059 19.7048 20.0198 18.045 17.2224 17.1474C17.2205 17.1474 22.2797 15.6133 23.8714 10.8152Z" fill="black"/>
</svg>
